<svg width="13" height="12" viewBox="0 0 13 12" fill="none" xmlns="http://www.w3.org/2000/svg">
<path fill-rule="evenodd" clip-rule="evenodd" d="M6.06946 3.3617L6.09656 3.81919L5.64496 3.76317C4.00115 3.54843 2.56507 2.82019 1.34576 1.59713L0.749651 0.990268L0.596108 1.43841C0.270958 2.4374 0.478693 3.49241 1.15609 4.20198C1.51737 4.5941 1.43608 4.65012 0.812875 4.41671C0.596108 4.34202 0.406437 4.286 0.388373 4.31401C0.32515 4.37937 0.541916 5.22898 0.713523 5.56509C0.948354 6.0319 1.42705 6.48939 1.9509 6.76014L2.39346 6.97488L1.86961 6.98421C1.36382 6.98421 1.34576 6.99355 1.39995 7.18961C1.58059 7.79648 2.29411 8.44069 3.08892 8.72078L3.6489 8.91684L3.16118 9.2156C2.43862 9.64508 1.58962 9.88782 0.740619 9.90649C0.334182 9.91583 0 9.95318 0 9.98118C0 10.0745 1.1019 10.5974 1.74316 10.8028C3.66697 11.4096 5.95205 11.1482 7.66812 10.1119C8.88743 9.37432 10.1067 7.90851 10.6758 6.48939C10.9828 5.73314 11.2899 4.35136 11.2899 3.68848C11.2899 3.259 11.317 3.20299 11.8228 2.68949C12.1209 2.39072 12.4009 2.06395 12.455 1.97059C12.5454 1.79319 12.5363 1.79319 12.0757 1.95191C11.308 2.232 11.1996 2.19466 11.5789 1.77452C11.8589 1.47576 12.1931 0.93425 12.1931 0.775532C12.1931 0.747522 12.0576 0.794204 11.9041 0.878231C11.7415 0.971595 11.3802 1.11164 11.1093 1.19567L10.6216 1.35439L10.179 1.04629C9.93513 0.878232 9.59192 0.691504 9.41128 0.635487C8.95065 0.504777 8.24616 0.52345 7.83069 0.672832C6.7017 1.09297 5.98818 2.17599 6.06946 3.3617Z" fill="#0051BA"/>
</svg>
