<svg width="125" height="26" viewBox="0 0 125 26" fill="none" xmlns="http://www.w3.org/2000/svg">
<path d="M1.61719 17.5V6.125H5.33594C6.57031 6.125 7.4974 6.38021 8.11719 6.89062C8.74219 7.40104 9.05469 8.15625 9.05469 9.15625C9.05469 9.6875 8.90365 10.1589 8.60156 10.5703C8.29948 10.9766 7.88802 11.2917 7.36719 11.5156C7.98177 11.6875 8.46615 12.0156 8.82031 12.5C9.17969 12.9792 9.35938 13.5521 9.35938 14.2188C9.35938 15.2396 9.02865 16.0417 8.36719 16.625C7.70573 17.2083 6.77083 17.5 5.5625 17.5H1.61719ZM3.11719 12.1797V16.2734H5.59375C6.29167 16.2734 6.84115 16.0938 7.24219 15.7344C7.64844 15.3698 7.85156 14.8698 7.85156 14.2344C7.85156 12.8646 7.10677 12.1797 5.61719 12.1797H3.11719ZM3.11719 10.9766H5.38281C6.03906 10.9766 6.5625 10.8125 6.95312 10.4844C7.34896 10.1562 7.54688 9.71094 7.54688 9.14844C7.54688 8.52344 7.36458 8.07031 7 7.78906C6.63542 7.5026 6.08073 7.35938 5.33594 7.35938H3.11719V10.9766ZM19.5938 6.125V13.8594C19.5885 14.9323 19.25 15.8099 18.5781 16.4922C17.9115 17.1745 17.0052 17.5573 15.8594 17.6406L15.4609 17.6562C14.2161 17.6562 13.224 17.3203 12.4844 16.6484C11.7448 15.9766 11.3698 15.0521 11.3594 13.875V6.125H12.8438V13.8281C12.8438 14.651 13.0703 15.2917 13.5234 15.75C13.9766 16.2031 14.6224 16.4297 15.4609 16.4297C16.3099 16.4297 16.9583 16.2031 17.4062 15.75C17.8594 15.2969 18.0859 14.6589 18.0859 13.8359V6.125H19.5938ZM25.3125 12.4297C24.026 12.0599 23.0885 11.6068 22.5 11.0703C21.9167 10.5286 21.625 9.86198 21.625 9.07031C21.625 8.17448 21.9818 7.4349 22.6953 6.85156C23.4141 6.26302 24.3464 5.96875 25.4922 5.96875C26.2734 5.96875 26.9688 6.11979 27.5781 6.42188C28.1927 6.72396 28.6667 7.14062 29 7.67188C29.3385 8.20312 29.5078 8.78385 29.5078 9.41406H28C28 8.72656 27.7812 8.1875 27.3438 7.79688C26.9062 7.40104 26.2891 7.20312 25.4922 7.20312C24.7526 7.20312 24.1745 7.36719 23.7578 7.69531C23.3464 8.01823 23.1406 8.46875 23.1406 9.04688C23.1406 9.51042 23.3359 9.90365 23.7266 10.2266C24.1224 10.5443 24.7917 10.8359 25.7344 11.1016C26.6823 11.3672 27.4219 11.6615 27.9531 11.9844C28.4896 12.3021 28.8854 12.6745 29.1406 13.1016C29.401 13.5286 29.5312 14.0312 29.5312 14.6094C29.5312 15.5312 29.1719 16.2708 28.4531 16.8281C27.7344 17.3802 26.7734 17.6562 25.5703 17.6562C24.7891 17.6562 24.0599 17.5078 23.3828 17.2109C22.7057 16.9089 22.1823 16.4974 21.8125 15.9766C21.4479 15.4557 21.2656 14.8646 21.2656 14.2031H22.7734C22.7734 14.8906 23.026 15.4349 23.5312 15.8359C24.0417 16.2318 24.7214 16.4297 25.5703 16.4297C26.362 16.4297 26.9688 16.2682 27.3906 15.9453C27.8125 15.6224 28.0234 15.1823 28.0234 14.625C28.0234 14.0677 27.8281 13.638 27.4375 13.3359C27.0469 13.0286 26.3385 12.7266 25.3125 12.4297ZM33.0703 17.5H31.5703V6.125H33.0703V17.5ZM44.5625 17.5H43.0547L37.3281 8.73438V17.5H35.8203V6.125H37.3281L43.0703 14.9297V6.125H44.5625V17.5ZM53.6562 12.2422H48.7266V16.2734H54.4531V17.5H47.2266V6.125H54.375V7.35938H48.7266V11.0156H53.6562V12.2422ZM59.6719 12.4297C58.3854 12.0599 57.4479 11.6068 56.8594 11.0703C56.276 10.5286 55.9844 9.86198 55.9844 9.07031C55.9844 8.17448 56.3411 7.4349 57.0547 6.85156C57.7734 6.26302 58.7057 5.96875 59.8516 5.96875C60.6328 5.96875 61.3281 6.11979 61.9375 6.42188C62.5521 6.72396 63.026 7.14062 63.3594 7.67188C63.6979 8.20312 63.8672 8.78385 63.8672 9.41406H62.3594C62.3594 8.72656 62.1406 8.1875 61.7031 7.79688C61.2656 7.40104 60.6484 7.20312 59.8516 7.20312C59.112 7.20312 58.5339 7.36719 58.1172 7.69531C57.7057 8.01823 57.5 8.46875 57.5 9.04688C57.5 9.51042 57.6953 9.90365 58.0859 10.2266C58.4818 10.5443 59.151 10.8359 60.0938 11.1016C61.0417 11.3672 61.7812 11.6615 62.3125 11.9844C62.849 12.3021 63.2448 12.6745 63.5 13.1016C63.7604 13.5286 63.8906 14.0312 63.8906 14.6094C63.8906 15.5312 63.5312 16.2708 62.8125 16.8281C62.0938 17.3802 61.1328 17.6562 59.9297 17.6562C59.1484 17.6562 58.4193 17.5078 57.7422 17.2109C57.0651 16.9089 56.5417 16.4974 56.1719 15.9766C55.8073 15.4557 55.625 14.8646 55.625 14.2031H57.1328C57.1328 14.8906 57.3854 15.4349 57.8906 15.8359C58.401 16.2318 59.0807 16.4297 59.9297 16.4297C60.7214 16.4297 61.3281 16.2682 61.75 15.9453C62.1719 15.6224 62.3828 15.1823 62.3828 14.625C62.3828 14.0677 62.1875 13.638 61.7969 13.3359C61.4062 13.0286 60.6979 12.7266 59.6719 12.4297ZM69.1719 12.4297C67.8854 12.0599 66.9479 11.6068 66.3594 11.0703C65.776 10.5286 65.4844 9.86198 65.4844 9.07031C65.4844 8.17448 65.8411 7.4349 66.5547 6.85156C67.2734 6.26302 68.2057 5.96875 69.3516 5.96875C70.1328 5.96875 70.8281 6.11979 71.4375 6.42188C72.0521 6.72396 72.526 7.14062 72.8594 7.67188C73.1979 8.20312 73.3672 8.78385 73.3672 9.41406H71.8594C71.8594 8.72656 71.6406 8.1875 71.2031 7.79688C70.7656 7.40104 70.1484 7.20312 69.3516 7.20312C68.612 7.20312 68.0339 7.36719 67.6172 7.69531C67.2057 8.01823 67 8.46875 67 9.04688C67 9.51042 67.1953 9.90365 67.5859 10.2266C67.9818 10.5443 68.651 10.8359 69.5938 11.1016C70.5417 11.3672 71.2812 11.6615 71.8125 11.9844C72.349 12.3021 72.7448 12.6745 73 13.1016C73.2604 13.5286 73.3906 14.0312 73.3906 14.6094C73.3906 15.5312 73.0312 16.2708 72.3125 16.8281C71.5938 17.3802 70.6328 17.6562 69.4297 17.6562C68.6484 17.6562 67.9193 17.5078 67.2422 17.2109C66.5651 16.9089 66.0417 16.4974 65.6719 15.9766C65.3073 15.4557 65.125 14.8646 65.125 14.2031H66.6328C66.6328 14.8906 66.8854 15.4349 67.3906 15.8359C67.901 16.2318 68.5807 16.4297 69.4297 16.4297C70.2214 16.4297 70.8281 16.2682 71.25 15.9453C71.6719 15.6224 71.8828 15.1823 71.8828 14.625C71.8828 14.0677 71.6875 13.638 71.2969 13.3359C70.9062 13.0286 70.1979 12.7266 69.1719 12.4297Z" fill="#0051BA"/>
<path opacity="0.5" fill-rule="evenodd" clip-rule="evenodd" d="M91 12C91 15.9 94.1 19 98 19H118C121.9 19 125 15.9 125 12C125 8.1 121.9 5 118 5H98C94.1 5 91 8.1 91 12Z" fill="#9AA6B6"/>
<g filter="url(#filter0_ddd_759_282)">
<path fill-rule="evenodd" clip-rule="evenodd" d="M99 22C93.4772 22 89 17.5228 89 12C89 6.47715 93.4772 2 99 2C104.523 2 109 6.47715 109 12C109 17.5228 104.523 22 99 22Z" fill="#9AA6B6"/>
</g>
<defs>
<filter id="filter0_ddd_759_282" x="86" y="0" width="26" height="26" filterUnits="userSpaceOnUse" color-interpolation-filters="sRGB">
<feFlood flood-opacity="0" result="BackgroundImageFix"/>
<feColorMatrix in="SourceAlpha" type="matrix" values="0 0 0 0 0 0 0 0 0 0 0 0 0 0 0 0 0 0 127 0" result="hardAlpha"/>
<feOffset dy="1"/>
<feGaussianBlur stdDeviation="1.5"/>
<feColorMatrix type="matrix" values="0 0 0 0 0 0 0 0 0 0 0 0 0 0 0 0 0 0 0.2 0"/>
<feBlend mode="normal" in2="BackgroundImageFix" result="effect1_dropShadow_759_282"/>
<feColorMatrix in="SourceAlpha" type="matrix" values="0 0 0 0 0 0 0 0 0 0 0 0 0 0 0 0 0 0 127 0" result="hardAlpha"/>
<feOffset dy="2"/>
<feGaussianBlur stdDeviation="1"/>
<feColorMatrix type="matrix" values="0 0 0 0 0 0 0 0 0 0 0 0 0 0 0 0 0 0 0.12 0"/>
<feBlend mode="normal" in2="effect1_dropShadow_759_282" result="effect2_dropShadow_759_282"/>
<feColorMatrix in="SourceAlpha" type="matrix" values="0 0 0 0 0 0 0 0 0 0 0 0 0 0 0 0 0 0 127 0" result="hardAlpha"/>
<feOffset/>
<feGaussianBlur stdDeviation="1"/>
<feColorMatrix type="matrix" values="0 0 0 0 0 0 0 0 0 0 0 0 0 0 0 0 0 0 0.14 0"/>
<feBlend mode="normal" in2="effect2_dropShadow_759_282" result="effect3_dropShadow_759_282"/>
<feBlend mode="normal" in="SourceGraphic" in2="effect3_dropShadow_759_282" result="shape"/>
</filter>
</defs>
</svg>
