<svg width="216" height="32" viewBox="0 0 216 32" fill="none" xmlns="http://www.w3.org/2000/svg">
<path fill-rule="evenodd" clip-rule="evenodd" d="M12 3.94446C10.2761 3.94446 8.62279 4.62928 7.40381 5.84826C6.18482 7.06725 5.5 8.72055 5.5 10.4445C5.5 12.9657 7.13287 15.3716 8.86298 17.1978C9.71781 18.1001 10.5743 18.8379 11.2177 19.3502C11.539 19.606 11.8061 19.8049 11.992 19.9391C11.9947 19.941 11.9973 19.943 12 19.9449C12.0027 19.943 12.0053 19.941 12.008 19.9391C12.1939 19.8049 12.461 19.606 12.7823 19.3502C13.4257 18.8379 14.2822 18.1001 15.137 17.1978C16.8671 15.3716 18.5 12.9657 18.5 10.4445C18.5 8.72055 17.8152 7.06725 16.5962 5.84826C15.3772 4.62928 13.7239 3.94446 12 3.94446ZM12 20.5556C11.7227 20.9716 11.7225 20.9715 11.7224 20.9714L11.7219 20.9711L11.7205 20.9702L11.7158 20.967L11.699 20.9556C11.6845 20.9458 11.6636 20.9315 11.6367 20.9129C11.5829 20.8756 11.505 20.8209 11.4065 20.7498C11.2095 20.6075 10.9297 20.3992 10.5948 20.1325C9.92567 19.5997 9.03219 18.8305 8.13702 17.8856C6.36713 16.0173 4.5 13.3677 4.5 10.4445C4.5 8.45533 5.29018 6.54768 6.6967 5.14116C8.10322 3.73463 10.0109 2.94446 12 2.94446C13.9891 2.94446 15.8968 3.73463 17.3033 5.14116C18.7098 6.54768 19.5 8.45533 19.5 10.4445C19.5 13.3677 17.6329 16.0173 15.863 17.8856C14.9678 18.8305 14.0743 19.5997 13.4052 20.1325C13.0703 20.3992 12.7905 20.6075 12.5935 20.7498C12.495 20.8209 12.4171 20.8756 12.3633 20.9129C12.3364 20.9315 12.3155 20.9458 12.301 20.9556L12.2842 20.967L12.2795 20.9702L12.2781 20.9711L12.2776 20.9714C12.2775 20.9715 12.2773 20.9716 12 20.5556ZM12 20.5556L12.2773 20.9716C12.1094 21.0836 11.8906 21.0836 11.7227 20.9716L12 20.5556ZM9.16681 10.4444C9.16681 8.8796 10.4353 7.61107 12.0001 7.61107C13.5649 7.61107 14.8335 8.8796 14.8335 10.4444C14.8335 12.0092 13.5649 13.2777 12.0001 13.2777C10.4353 13.2777 9.16681 12.0092 9.16681 10.4444ZM12.0001 8.61107C10.9876 8.61107 10.1668 9.43188 10.1668 10.4444C10.1668 11.4569 10.9876 12.2777 12.0001 12.2777C13.0127 12.2777 13.8335 11.4569 13.8335 10.4444C13.8335 9.43188 13.0127 8.61107 12.0001 8.61107Z" fill="#9AA6B6"/>
<path d="M33.7354 10.6494H30.3242V17H29.0527V9.60352H33.7354V10.6494ZM34.8633 16.3369C34.8633 16.1182 34.9271 15.9359 35.0547 15.79C35.1868 15.6442 35.3828 15.5713 35.6426 15.5713C35.9023 15.5713 36.0983 15.6442 36.2305 15.79C36.3672 15.9359 36.4355 16.1182 36.4355 16.3369C36.4355 16.5465 36.3672 16.722 36.2305 16.8633C36.0983 17.0046 35.9023 17.0752 35.6426 17.0752C35.3828 17.0752 35.1868 17.0046 35.0547 16.8633C34.9271 16.722 34.8633 16.5465 34.8633 16.3369ZM48.2686 8.12695H43.4697V11.1074H45.9443C46.9834 11.1211 47.7946 11.3877 48.3779 11.9072C48.9613 12.4268 49.2529 13.1331 49.2529 14.0264C49.2529 14.9242 48.959 15.6396 48.3711 16.1729C47.7832 16.7061 46.9811 16.9818 45.9648 17H42.1504V7.04688H48.2686V8.12695ZM43.4697 12.1875V15.9268H45.8691C46.5208 15.9268 47.0267 15.7536 47.3867 15.4072C47.7513 15.0609 47.9336 14.596 47.9336 14.0127C47.9336 13.4521 47.7581 13.0101 47.4072 12.6865C47.0609 12.363 46.5664 12.1966 45.9238 12.1875H43.4697ZM55.6172 9.60352H56.8818V17H55.6172V11.6064L52.2061 17H50.9414V9.60352H52.2061V15.0039L55.6172 9.60352ZM60.293 9.60352V15.9678H63V9.60352H64.2646V15.9678H66.9648V9.60352H68.2363V17H59.0215V9.60352H60.293ZM72.5361 13.8486H71.6133V17H70.3418V9.60352H71.6133V12.7344H72.4404L74.9287 9.60352H76.46L73.5342 13.1582L76.7061 17H75.0996L72.5361 13.8486ZM80.7529 17.1367C79.7503 17.1367 78.9346 16.8086 78.3057 16.1523C77.6768 15.4915 77.3623 14.6097 77.3623 13.5068V13.2744C77.3623 12.5407 77.5013 11.8867 77.7793 11.3125C78.0618 10.7337 78.4538 10.2826 78.9551 9.95898C79.4609 9.63086 80.0078 9.4668 80.5957 9.4668C81.5573 9.4668 82.3047 9.78353 82.8379 10.417C83.3711 11.0505 83.6377 11.9574 83.6377 13.1377V13.6641H78.627C78.6452 14.3932 78.8571 14.9834 79.2627 15.4346C79.6729 15.8812 80.1924 16.1045 80.8213 16.1045C81.2679 16.1045 81.6462 16.0133 81.9561 15.8311C82.266 15.6488 82.5371 15.4072 82.7695 15.1064L83.542 15.708C82.9222 16.6605 81.9925 17.1367 80.7529 17.1367ZM80.5957 10.5059C80.0853 10.5059 79.6569 10.6927 79.3105 11.0664C78.9642 11.4355 78.75 11.9551 78.668 12.625H82.373V12.5293C82.3366 11.8867 82.1634 11.39 81.8535 11.0391C81.5436 10.6836 81.1243 10.5059 80.5957 10.5059ZM87.4111 13.8486H86.4883V17H85.2168V9.60352H86.4883V12.7344H87.3154L89.8037 9.60352H91.335L88.4092 13.1582L91.5811 17H89.9746L87.4111 13.8486ZM92.627 18.9824L91.9092 18.4902C92.3376 17.8932 92.5609 17.278 92.5791 16.6445V15.5029H93.8164V16.4941C93.8164 16.9544 93.7025 17.4147 93.4746 17.875C93.2513 18.3353 92.9688 18.7044 92.627 18.9824ZM106.299 7.04688V17H104.979V12.8779C104.501 13.0146 104.066 13.1104 103.674 13.165C103.282 13.2152 102.835 13.2402 102.334 13.2402C101.199 13.2402 100.356 12.9941 99.8047 12.502C99.2533 12.0098 98.9707 11.2555 98.957 10.2393V7.04688H100.276V10.2051C100.281 10.8978 100.438 11.3968 100.748 11.7021C101.062 12.0075 101.591 12.1602 102.334 12.1602C103.2 12.1602 104.082 12.0371 104.979 11.791V7.04688H106.299ZM110.893 15.1475L112.615 9.60352H113.969L110.995 18.1416C110.535 19.3721 109.803 19.9873 108.801 19.9873L108.562 19.9668L108.09 19.8779V18.8525L108.432 18.8799C108.86 18.8799 109.193 18.7933 109.43 18.6201C109.671 18.4469 109.869 18.1302 110.024 17.6699L110.305 16.918L107.666 9.60352H109.047L110.893 15.1475ZM119.889 9.60352H121.153V17H119.889V11.6064L116.478 17H115.213V9.60352H116.478V15.0039L119.889 9.60352ZM120.23 6.91016C120.23 7.46159 120.041 7.90592 119.663 8.24316C119.289 8.57585 118.797 8.74219 118.187 8.74219C117.576 8.74219 117.081 8.57357 116.703 8.23633C116.325 7.89909 116.136 7.45703 116.136 6.91016H117.168C117.168 7.22917 117.255 7.47982 117.428 7.66211C117.601 7.83984 117.854 7.92871 118.187 7.92871C118.506 7.92871 118.754 7.83984 118.932 7.66211C119.114 7.48438 119.205 7.23372 119.205 6.91016H120.23ZM126.15 16.1045C126.602 16.1045 126.996 15.9678 127.333 15.6943C127.67 15.4209 127.857 15.0791 127.894 14.6689H129.09C129.067 15.0928 128.921 15.4961 128.652 15.8789C128.383 16.2617 128.023 16.5671 127.572 16.7949C127.126 17.0228 126.652 17.1367 126.15 17.1367C125.143 17.1367 124.341 16.8018 123.744 16.1318C123.152 15.4574 122.855 14.5368 122.855 13.3701V13.1582C122.855 12.4382 122.988 11.7979 123.252 11.2373C123.516 10.6768 123.895 10.2415 124.387 9.93164C124.883 9.62174 125.469 9.4668 126.144 9.4668C126.973 9.4668 127.661 9.71517 128.208 10.2119C128.759 10.7087 129.053 11.3535 129.09 12.1465H127.894C127.857 11.668 127.675 11.276 127.347 10.9707C127.023 10.6608 126.622 10.5059 126.144 10.5059C125.501 10.5059 125.002 10.7383 124.646 11.2031C124.296 11.6634 124.12 12.3311 124.12 13.2061V13.4453C124.12 14.2975 124.296 14.9538 124.646 15.4141C124.997 15.8743 125.499 16.1045 126.15 16.1045ZM132.815 13.8486H131.893V17H130.621V9.60352H131.893V12.7344H132.72L135.208 9.60352H136.739L133.813 13.1582L136.985 17H135.379L132.815 13.8486ZM142.639 17C142.566 16.8542 142.507 16.5944 142.461 16.2207C141.873 16.8314 141.171 17.1367 140.355 17.1367C139.626 17.1367 139.027 16.9316 138.558 16.5215C138.093 16.1068 137.86 15.5827 137.86 14.9492C137.86 14.179 138.152 13.582 138.735 13.1582C139.323 12.7298 140.148 12.5156 141.21 12.5156H142.44V11.9346C142.44 11.4925 142.308 11.1416 142.044 10.8818C141.78 10.6175 141.39 10.4854 140.875 10.4854C140.424 10.4854 140.046 10.5993 139.74 10.8271C139.435 11.055 139.282 11.3307 139.282 11.6543H138.011C138.011 11.2852 138.141 10.9297 138.4 10.5879C138.665 10.2415 139.02 9.9681 139.467 9.76758C139.918 9.56706 140.412 9.4668 140.95 9.4668C141.802 9.4668 142.47 9.68099 142.953 10.1094C143.436 10.5332 143.687 11.1188 143.705 11.8662V15.2705C143.705 15.9495 143.792 16.4896 143.965 16.8906V17H142.639ZM140.54 16.0361C140.937 16.0361 141.312 15.9336 141.668 15.7285C142.023 15.5234 142.281 15.2568 142.44 14.9287V13.4111H141.449C139.9 13.4111 139.125 13.8646 139.125 14.7715C139.125 15.168 139.257 15.4779 139.521 15.7012C139.786 15.9245 140.125 16.0361 140.54 16.0361ZM151.341 9.60352V17H150.069V14.1221H148.162L146.419 17H145.052L146.911 13.9307C146.437 13.7575 146.073 13.4909 145.817 13.1309C145.567 12.7663 145.441 12.3424 145.441 11.8594C145.441 11.1849 145.694 10.6426 146.2 10.2324C146.706 9.81771 147.383 9.60807 148.23 9.60352H151.341ZM146.713 11.873C146.713 12.2331 146.836 12.5247 147.082 12.748C147.328 12.9668 147.654 13.0785 148.06 13.083H150.069V10.6289H148.251C147.782 10.6289 147.408 10.7451 147.13 10.9775C146.852 11.2054 146.713 11.5039 146.713 11.873ZM156.509 13.2334C156.509 12.5088 156.65 11.8571 156.933 11.2783C157.22 10.6995 157.616 10.2529 158.122 9.93848C158.632 9.62402 159.214 9.4668 159.865 9.4668C160.872 9.4668 161.686 9.81543 162.306 10.5127C162.93 11.21 163.242 12.1374 163.242 13.2949V13.3838C163.242 14.1038 163.103 14.751 162.825 15.3252C162.552 15.8949 162.158 16.3392 161.643 16.6582C161.132 16.9772 160.544 17.1367 159.879 17.1367C158.876 17.1367 158.063 16.7881 157.438 16.0908C156.819 15.3936 156.509 14.4707 156.509 13.3223V13.2334ZM157.78 13.3838C157.78 14.2041 157.969 14.8626 158.348 15.3594C158.73 15.8561 159.241 16.1045 159.879 16.1045C160.521 16.1045 161.032 15.8538 161.41 15.3525C161.788 14.8467 161.978 14.1403 161.978 13.2334C161.978 12.4222 161.784 11.766 161.396 11.2646C161.014 10.7588 160.503 10.5059 159.865 10.5059C159.241 10.5059 158.737 10.7542 158.354 11.251C157.972 11.7477 157.78 12.4587 157.78 13.3838ZM168.075 10.0273C169.005 10.0273 169.748 10.3395 170.304 10.9639C170.864 11.5837 171.145 12.4017 171.145 13.418V13.5342C171.145 14.2314 171.01 14.8558 170.741 15.4072C170.472 15.9541 170.085 16.3802 169.579 16.6855C169.078 16.9863 168.499 17.1367 167.843 17.1367C166.849 17.1367 166.049 16.8063 165.443 16.1455C164.837 15.4801 164.534 14.5892 164.534 13.4727V12.8574C164.534 11.3034 164.821 10.0684 165.396 9.15234C165.974 8.23633 166.826 7.67806 167.952 7.47754C168.59 7.36361 169.021 7.22461 169.244 7.06055C169.467 6.89648 169.579 6.6709 169.579 6.38379H170.618C170.618 6.95345 170.488 7.39779 170.229 7.7168C169.973 8.03581 169.563 8.26139 168.998 8.39355L168.055 8.60547C167.303 8.7832 166.738 9.08398 166.359 9.50781C165.986 9.92708 165.742 10.4876 165.628 11.1895C166.298 10.4147 167.114 10.0273 168.075 10.0273ZM167.829 11.0664C167.209 11.0664 166.717 11.276 166.353 11.6953C165.988 12.11 165.806 12.6865 165.806 13.4248V13.5342C165.806 14.3271 165.988 14.9561 166.353 15.4209C166.722 15.8812 167.218 16.1113 167.843 16.1113C168.472 16.1113 168.968 15.8789 169.333 15.4141C169.698 14.9492 169.88 14.2702 169.88 13.377C169.88 12.6797 169.695 12.1214 169.326 11.7021C168.962 11.2783 168.463 11.0664 167.829 11.0664ZM178.63 9.60352V17H177.358V10.6494H174.843L174.692 13.418C174.61 14.6895 174.396 15.5986 174.05 16.1455C173.708 16.6924 173.163 16.9772 172.416 17H171.91V15.8857L172.272 15.8584C172.683 15.8128 172.977 15.5758 173.154 15.1475C173.332 14.7191 173.446 13.9261 173.496 12.7686L173.633 9.60352H178.63ZM185.227 17C185.154 16.8542 185.094 16.5944 185.049 16.2207C184.461 16.8314 183.759 17.1367 182.943 17.1367C182.214 17.1367 181.615 16.9316 181.146 16.5215C180.681 16.1068 180.448 15.5827 180.448 14.9492C180.448 14.179 180.74 13.582 181.323 13.1582C181.911 12.7298 182.736 12.5156 183.798 12.5156H185.028V11.9346C185.028 11.4925 184.896 11.1416 184.632 10.8818C184.368 10.6175 183.978 10.4854 183.463 10.4854C183.012 10.4854 182.633 10.5993 182.328 10.8271C182.023 11.055 181.87 11.3307 181.87 11.6543H180.599C180.599 11.2852 180.729 10.9297 180.988 10.5879C181.253 10.2415 181.608 9.9681 182.055 9.76758C182.506 9.56706 183 9.4668 183.538 9.4668C184.39 9.4668 185.058 9.68099 185.541 10.1094C186.024 10.5332 186.275 11.1188 186.293 11.8662V15.2705C186.293 15.9495 186.38 16.4896 186.553 16.8906V17H185.227ZM183.128 16.0361C183.524 16.0361 183.9 15.9336 184.256 15.7285C184.611 15.5234 184.869 15.2568 185.028 14.9287V13.4111H184.037C182.488 13.4111 181.713 13.8646 181.713 14.7715C181.713 15.168 181.845 15.4779 182.109 15.7012C182.374 15.9245 182.713 16.0361 183.128 16.0361ZM191.242 16.1045C191.693 16.1045 192.088 15.9678 192.425 15.6943C192.762 15.4209 192.949 15.0791 192.985 14.6689H194.182C194.159 15.0928 194.013 15.4961 193.744 15.8789C193.475 16.2617 193.115 16.5671 192.664 16.7949C192.217 17.0228 191.743 17.1367 191.242 17.1367C190.235 17.1367 189.433 16.8018 188.836 16.1318C188.243 15.4574 187.947 14.5368 187.947 13.3701V13.1582C187.947 12.4382 188.079 11.7979 188.344 11.2373C188.608 10.6768 188.986 10.2415 189.479 9.93164C189.975 9.62174 190.561 9.4668 191.235 9.4668C192.065 9.4668 192.753 9.71517 193.3 10.2119C193.851 10.7087 194.145 11.3535 194.182 12.1465H192.985C192.949 11.668 192.767 11.276 192.438 10.9707C192.115 10.6608 191.714 10.5059 191.235 10.5059C190.593 10.5059 190.094 10.7383 189.738 11.2031C189.387 11.6634 189.212 12.3311 189.212 13.2061V13.4453C189.212 14.2975 189.387 14.9538 189.738 15.4141C190.089 15.8743 190.59 16.1045 191.242 16.1045ZM201.1 10.6289H198.618V17H197.354V10.6289H194.92V9.60352H201.1V10.6289ZM203.711 12.1533H205.632C206.47 12.1624 207.133 12.3812 207.621 12.8096C208.109 13.238 208.353 13.819 208.353 14.5527C208.353 15.291 208.102 15.8835 207.601 16.3301C207.099 16.7767 206.425 17 205.577 17H202.446V9.60352H203.711V12.1533ZM203.711 13.1855V15.9678H205.591C206.065 15.9678 206.432 15.847 206.691 15.6055C206.951 15.3594 207.081 15.0244 207.081 14.6006C207.081 14.1904 206.953 13.8555 206.698 13.5957C206.448 13.3314 206.094 13.1947 205.639 13.1855H203.711Z" fill="#9AA6B6"/>
</svg>
