<svg width="18" height="18" viewBox="0 0 18 18" fill="none" xmlns="http://www.w3.org/2000/svg">
<path d="M8.99998 16.9986C8.74373 16.9986 8.49667 16.9058 8.30414 16.7371C7.57698 16.1013 6.87592 15.5038 6.25739 14.9767L6.25423 14.974C4.4408 13.4286 2.87484 12.094 1.78527 10.7794C0.567305 9.30968 0 7.9162 0 6.39391C0 4.91487 0.507155 3.55037 1.42795 2.55157C2.35972 1.54097 3.63825 0.984375 5.02843 0.984375C6.06746 0.984375 7.01901 1.31287 7.85658 1.96065C8.27928 2.28763 8.66243 2.68781 8.99998 3.15459C9.33767 2.68781 9.72069 2.28763 10.1435 1.96065C10.9811 1.31287 11.9326 0.984375 12.9717 0.984375C14.3617 0.984375 15.6404 1.54097 16.5722 2.55157C17.4929 3.55037 18 4.91487 18 6.39391C18 7.9162 17.4328 9.30968 16.2148 10.7792C15.1253 12.094 13.5594 13.4285 11.7463 14.9737C11.1267 15.5016 10.4245 16.1001 9.69569 16.7374C9.50329 16.9058 9.2561 16.9986 8.99998 16.9986ZM4.5 5.5C3.40782 5.5 6.98413 4.20844 6.25423 5C5.51348 5.80351 4.5 5.28656 4.5 6.5C4.5 7.78032 8.62878 5.9101 9.69569 7.19742C10.7269 8.44176 8.60036 11.1129 10.3763 12.6264L10 13.5C10.6209 14.0291 8.26596 15.3033 8.99847 15.9438C9.73538 15.302 10.4403 14.7012 11.0624 14.1713C12.8382 12.6578 14.3719 11.3509 15.4031 10.1066C16.4698 8.81927 15 7.67422 15 6.39391C15 5.18047 16.5377 4.06975 15.7969 3.26624C15.0672 2.47467 14.092 5 13 5C12.1999 5 12.6486 4.49847 12 5C11.422 5.44714 9.5 6 10.6435 5.5C10.5221 5.70338 16.4514 2.55157 16.2148 2.55157C19.5 10.5 9.11987 16.1472 8.99847 15.9438C8.76254 15.5483 3.17518 7.44714 2.59703 7C1.94842 6.49847 5.29994 5.5 4.5 5.5Z" fill="#FFCB05"/>
</svg>
