<svg width="30" height="18" viewBox="0 0 30 18" fill="none" xmlns="http://www.w3.org/2000/svg">
<rect width="30" height="18" rx="3" fill="#0051BA" fill-opacity="0.11"/>
<path d="M11.1191 9.54883H9.11523V13H7.98438V4.46875H10.8086C11.7695 4.46875 12.5078 4.6875 13.0234 5.125C13.543 5.5625 13.8027 6.19922 13.8027 7.03516C13.8027 7.56641 13.6582 8.0293 13.3691 8.42383C13.084 8.81836 12.6855 9.11328 12.1738 9.30859L14.1777 12.9297V13H12.9707L11.1191 9.54883ZM9.11523 8.62891H10.8438C11.4023 8.62891 11.8457 8.48438 12.1738 8.19531C12.5059 7.90625 12.6719 7.51953 12.6719 7.03516C12.6719 6.50781 12.5137 6.10352 12.1973 5.82227C11.8848 5.54102 11.4316 5.39844 10.8379 5.39453H9.11523V8.62891ZM21.3906 4.46875V10.2695C21.3867 11.0742 21.1328 11.7324 20.6289 12.2441C20.1289 12.7559 19.4492 13.043 18.5898 13.1055L18.291 13.1172C17.3574 13.1172 16.6133 12.8652 16.0586 12.3613C15.5039 11.8574 15.2227 11.1641 15.2148 10.2812V4.46875H16.3281V10.2461C16.3281 10.8633 16.498 11.3438 16.8379 11.6875C17.1777 12.0273 17.6621 12.1973 18.291 12.1973C18.9277 12.1973 19.4141 12.0273 19.75 11.6875C20.0898 11.3477 20.2598 10.8691 20.2598 10.252V4.46875H21.3906Z" fill="#0051BA"/>
</svg>
