<svg width="58" height="12" viewBox="0 0 58 12" fill="none" xmlns="http://www.w3.org/2000/svg">
<path d="M8.97949 2.11572H5.71289V11H3.51562V2.11572H0.292969V0.335938H8.97949V2.11572ZM16.6553 6.37842H12.4365V9.23486H17.3877V11H10.2393V0.335938H17.373V2.11572H12.4365V4.65723H16.6553V6.37842ZM21.0059 9.23486H26.3818V11H18.2593V9.71094L23.5327 2.11572H18.2666V0.335938H26.2646V1.5957L21.0059 9.23486ZM37.0386 8.20215C37.0386 7.78711 36.8921 7.46973 36.5991 7.25C36.3062 7.02539 35.7788 6.79102 35.0171 6.54688C34.2554 6.29785 33.6523 6.05371 33.208 5.81445C31.9971 5.16016 31.3916 4.27881 31.3916 3.17041C31.3916 2.59424 31.5527 2.08154 31.875 1.63232C32.2021 1.17822 32.6685 0.824219 33.2739 0.570312C33.8843 0.316406 34.5679 0.189453 35.3247 0.189453C36.0864 0.189453 36.7651 0.328613 37.3608 0.606934C37.9565 0.880371 38.418 1.26855 38.7451 1.77148C39.0771 2.27441 39.2432 2.8457 39.2432 3.48535H37.0459C37.0459 2.99707 36.8921 2.61865 36.5845 2.3501C36.2769 2.07666 35.8447 1.93994 35.2881 1.93994C34.751 1.93994 34.3335 2.05469 34.0356 2.28418C33.7378 2.50879 33.5889 2.80664 33.5889 3.17773C33.5889 3.52441 33.7622 3.81494 34.1089 4.04932C34.4604 4.28369 34.9756 4.50342 35.6543 4.7085C36.9043 5.08447 37.8149 5.55078 38.3862 6.10742C38.9575 6.66406 39.2432 7.35742 39.2432 8.1875C39.2432 9.11035 38.894 9.83545 38.1958 10.3628C37.4976 10.8853 36.5576 11.1465 35.376 11.1465C34.5557 11.1465 33.8086 10.9976 33.1348 10.6997C32.4609 10.397 31.9458 9.98438 31.5894 9.46191C31.2378 8.93945 31.062 8.33398 31.062 7.64551H33.2666C33.2666 8.82227 33.9697 9.41064 35.376 9.41064C35.8984 9.41064 36.3062 9.30566 36.5991 9.0957C36.8921 8.88086 37.0386 8.58301 37.0386 8.20215ZM46.7578 8.80273H42.9053L42.1729 11H39.8364L43.8062 0.335938H45.8423L49.834 11H47.4976L46.7578 8.80273ZM43.4985 7.02295H46.1646L44.8242 3.03125L43.4985 7.02295ZM57.9785 2.11572H54.7119V11H52.5146V2.11572H49.292V0.335938H57.9785V2.11572Z" fill="#0051BA"/>
</svg>
