<svg width="164" height="16" viewBox="0 0 164 16" fill="none" xmlns="http://www.w3.org/2000/svg">
<path d="M8.03223 4.12695H4.83301V13H3.52734V4.12695H0.334961V3.04688H8.03223V4.12695ZM16.5156 3.04688V9.81445C16.5111 10.7533 16.2148 11.5212 15.627 12.1182C15.0436 12.7152 14.2507 13.0501 13.248 13.123L12.8994 13.1367C11.8102 13.1367 10.9421 12.8428 10.2949 12.2549C9.64779 11.667 9.31966 10.8581 9.31055 9.82812V3.04688H10.6094V9.78711C10.6094 10.5072 10.8076 11.0677 11.2041 11.4688C11.6006 11.8652 12.1657 12.0635 12.8994 12.0635C13.6423 12.0635 14.2096 11.8652 14.6016 11.4688C14.998 11.0723 15.1963 10.514 15.1963 9.79395V3.04688H16.5156ZM20.2822 3.04688L23.5361 11.168L26.79 3.04688H28.4922V13H27.1797V9.12402L27.3027 4.94043L24.0352 13H23.0303L19.7695 4.96094L19.8994 9.12402V13H18.5869V3.04688H20.2822ZM36.4287 10.4023H32.2588L31.3223 13H29.9688L33.7695 3.04688H34.918L38.7256 13H37.3789L36.4287 10.4023ZM32.6553 9.32227H36.0391L34.3438 4.66699L32.6553 9.32227ZM43.7158 8.97363H41.3779V13H40.0586V3.04688H43.3535C44.4746 3.04688 45.3359 3.30208 45.9375 3.8125C46.5436 4.32292 46.8467 5.06576 46.8467 6.04102C46.8467 6.66081 46.6781 7.20085 46.3408 7.66113C46.0081 8.12142 45.5433 8.46549 44.9463 8.69336L47.2842 12.918V13H45.876L43.7158 8.97363ZM41.3779 7.90039H43.3945C44.0462 7.90039 44.5635 7.73177 44.9463 7.39453C45.3337 7.05729 45.5273 6.60612 45.5273 6.04102C45.5273 5.42578 45.3428 4.9541 44.9736 4.62598C44.609 4.29785 44.0804 4.13151 43.3877 4.12695H41.3779V7.90039ZM55.0977 8.56348C53.972 8.23991 53.1517 7.84342 52.6367 7.37402C52.1263 6.90007 51.8711 6.31673 51.8711 5.62402C51.8711 4.84017 52.1833 4.19303 52.8076 3.68262C53.4365 3.16764 54.2523 2.91016 55.2549 2.91016C55.9385 2.91016 56.5469 3.04232 57.0801 3.30664C57.6178 3.57096 58.0326 3.93555 58.3242 4.40039C58.6204 4.86523 58.7686 5.37337 58.7686 5.9248H57.4492C57.4492 5.32324 57.2578 4.85156 56.875 4.50977C56.4922 4.16341 55.9521 3.99023 55.2549 3.99023C54.6077 3.99023 54.1019 4.13379 53.7373 4.4209C53.3773 4.70345 53.1973 5.09766 53.1973 5.60352C53.1973 6.00911 53.3682 6.35319 53.71 6.63574C54.0563 6.91374 54.6419 7.16895 55.4668 7.40137C56.2962 7.63379 56.9434 7.89128 57.4082 8.17383C57.8776 8.45182 58.224 8.77767 58.4473 9.15137C58.6751 9.52507 58.7891 9.96484 58.7891 10.4707C58.7891 11.2773 58.4746 11.9245 57.8457 12.4121C57.2168 12.8952 56.376 13.1367 55.3232 13.1367C54.6396 13.1367 54.0016 13.0068 53.4092 12.7471C52.8167 12.4827 52.3587 12.1227 52.0352 11.667C51.7161 11.2113 51.5566 10.694 51.5566 10.1152H52.876C52.876 10.7168 53.097 11.193 53.5391 11.5439C53.9857 11.8903 54.5804 12.0635 55.3232 12.0635C56.016 12.0635 56.5469 11.9222 56.916 11.6396C57.2852 11.3571 57.4697 10.972 57.4697 10.4844C57.4697 9.99674 57.2988 9.62077 56.957 9.35645C56.6152 9.08757 55.9954 8.82324 55.0977 8.56348ZM68.127 13H66.8076V8.39941H61.79V13H60.4775V3.04688H61.79V7.32617H66.8076V3.04688H68.127V13ZM78.1143 8.34473C78.1143 9.31999 77.9502 10.1722 77.6221 10.9014C77.2939 11.626 76.8291 12.1797 76.2275 12.5625C75.626 12.9453 74.9242 13.1367 74.1221 13.1367C73.3382 13.1367 72.6432 12.9453 72.0371 12.5625C71.431 12.1751 70.9593 11.626 70.6221 10.915C70.2894 10.1995 70.1185 9.3724 70.1094 8.43359V7.71582C70.1094 6.75879 70.2757 5.91341 70.6084 5.17969C70.9411 4.44596 71.4105 3.88542 72.0166 3.49805C72.6273 3.10612 73.3245 2.91016 74.1084 2.91016C74.9059 2.91016 75.6077 3.10384 76.2139 3.49121C76.8245 3.87402 77.2939 4.43229 77.6221 5.16602C77.9502 5.89518 78.1143 6.74512 78.1143 7.71582V8.34473ZM76.8086 7.70215C76.8086 6.52181 76.5716 5.61719 76.0977 4.98828C75.6237 4.35482 74.9606 4.03809 74.1084 4.03809C73.279 4.03809 72.625 4.35482 72.1465 4.98828C71.6725 5.61719 71.4287 6.49219 71.415 7.61328V8.34473C71.415 9.48861 71.6543 10.3887 72.1328 11.0449C72.6159 11.6966 73.279 12.0225 74.1221 12.0225C74.9697 12.0225 75.626 11.7148 76.0908 11.0996C76.5557 10.4798 76.7949 9.59342 76.8086 8.44043V7.70215ZM81.3955 9.10352V13H80.083V3.04688H83.7539C84.8431 3.04688 85.6953 3.32487 86.3105 3.88086C86.9303 4.43685 87.2402 5.17285 87.2402 6.08887C87.2402 7.05501 86.9372 7.80013 86.3311 8.32422C85.7295 8.84375 84.8659 9.10352 83.7402 9.10352H81.3955ZM81.3955 8.03027H83.7539C84.4557 8.03027 84.9935 7.86621 85.3672 7.53809C85.7409 7.2054 85.9277 6.72689 85.9277 6.10254C85.9277 5.51009 85.7409 5.03613 85.3672 4.68066C84.9935 4.3252 84.4808 4.14062 83.8291 4.12695H81.3955V8.03027Z" fill="#0051BA"/>
<g clip-path="url(#clip0_771_652)">
<path d="M111.498 6.98979L111.498 6.99034C111.502 7.0028 111.499 7.01585 111.489 7.02466L111.488 7.02501L109.307 8.93798L109.083 9.13427L109.149 9.42461L109.792 12.2582C109.792 12.2582 109.792 12.2583 109.792 12.2583C109.795 12.2715 109.79 12.284 109.78 12.2916L109.78 12.2917C109.769 12.2994 109.756 12.2994 109.747 12.2935L109.745 12.2928L107.257 10.8048L107 10.6515L106.744 10.8048L104.254 12.2928L104.254 12.2929C104.25 12.2951 104.247 12.2963 104.245 12.2969C104.242 12.2975 104.24 12.2978 104.238 12.2978C104.235 12.2978 104.232 12.2974 104.23 12.2965C104.227 12.2956 104.223 12.2941 104.22 12.2912C104.21 12.2842 104.205 12.2721 104.208 12.2581C104.208 12.258 104.208 12.258 104.208 12.258L104.851 9.42461L104.917 9.1343L104.693 8.93801L102.511 7.02466L102.51 7.02383C102.502 7.01621 102.498 7.00352 102.502 6.9906C102.506 6.97786 102.516 6.96967 102.529 6.96842C102.529 6.96841 102.529 6.96841 102.529 6.9684L105.415 6.7064L105.713 6.67941L105.83 6.40492L106.971 3.73463C106.971 3.73457 106.971 3.73452 106.971 3.73447C106.977 3.72126 106.988 3.7146 107 3.7146C107.012 3.7146 107.024 3.72146 107.029 3.73437C107.029 3.73443 107.029 3.7345 107.03 3.73456L108.17 6.40489L108.288 6.67941L108.585 6.7064L111.471 6.96848L111.472 6.96851C111.484 6.96965 111.494 6.97778 111.498 6.98979Z" fill="#FFCB05" stroke="#FFCB05"/>
</g>
<g clip-path="url(#clip1_771_652)">
<path d="M124.498 6.98979L124.498 6.99034C124.502 7.0028 124.499 7.01585 124.489 7.02466L124.488 7.02501L122.307 8.93798L122.083 9.13427L122.149 9.42461L122.792 12.2582C122.792 12.2582 122.792 12.2583 122.792 12.2583C122.795 12.2715 122.79 12.284 122.78 12.2916L122.78 12.2917C122.769 12.2994 122.756 12.2994 122.747 12.2935L122.745 12.2928L120.257 10.8048L120 10.6515L119.744 10.8048L117.254 12.2928L117.254 12.2929C117.25 12.2951 117.247 12.2963 117.245 12.2969C117.242 12.2975 117.24 12.2978 117.238 12.2978C117.235 12.2978 117.232 12.2974 117.23 12.2965C117.227 12.2956 117.223 12.2941 117.22 12.2912C117.21 12.2842 117.205 12.2721 117.208 12.2581C117.208 12.258 117.208 12.258 117.208 12.258L117.851 9.42461L117.917 9.1343L117.693 8.93801L115.511 7.02466L115.51 7.02383C115.502 7.01621 115.498 7.00352 115.502 6.9906C115.506 6.97786 115.516 6.96967 115.529 6.96842C115.529 6.96841 115.529 6.96841 115.529 6.9684L118.415 6.7064L118.713 6.67941L118.83 6.40492L119.971 3.73463C119.971 3.73457 119.971 3.73452 119.971 3.73447C119.977 3.72126 119.988 3.7146 120 3.7146C120.012 3.7146 120.024 3.72146 120.029 3.73437C120.029 3.73443 120.029 3.7345 120.03 3.73456L121.17 6.40489L121.288 6.67941L121.585 6.7064L124.471 6.96848L124.472 6.96851C124.484 6.96965 124.494 6.97778 124.498 6.98979Z" fill="#FFCB05" stroke="#FFCB05"/>
</g>
<g clip-path="url(#clip2_771_652)">
<path d="M137.498 6.98979L137.498 6.99034C137.502 7.0028 137.499 7.01585 137.489 7.02466L137.488 7.02501L135.307 8.93798L135.083 9.13427L135.149 9.42461L135.792 12.2582C135.792 12.2582 135.792 12.2583 135.792 12.2583C135.795 12.2715 135.79 12.284 135.78 12.2916L135.78 12.2917C135.769 12.2994 135.756 12.2994 135.747 12.2935L135.745 12.2928L133.257 10.8048L133 10.6515L132.744 10.8048L130.254 12.2928L130.254 12.2929C130.25 12.2951 130.247 12.2963 130.245 12.2969C130.242 12.2975 130.24 12.2978 130.238 12.2978C130.235 12.2978 130.232 12.2974 130.23 12.2965C130.227 12.2956 130.223 12.2941 130.22 12.2912C130.21 12.2842 130.205 12.2721 130.208 12.2581C130.208 12.258 130.208 12.258 130.208 12.258L130.851 9.42461L130.917 9.1343L130.693 8.93801L128.511 7.02466L128.51 7.02383C128.502 7.01621 128.498 7.00352 128.502 6.9906C128.506 6.97786 128.516 6.96967 128.529 6.96842C128.529 6.96841 128.529 6.96841 128.529 6.9684L131.415 6.7064L131.713 6.67941L131.83 6.40492L132.971 3.73463C132.971 3.73457 132.971 3.73452 132.971 3.73447C132.977 3.72126 132.988 3.7146 133 3.7146C133.012 3.7146 133.024 3.72146 133.029 3.73437C133.029 3.73443 133.029 3.7345 133.03 3.73456L134.17 6.40489L134.288 6.67941L134.585 6.7064L137.471 6.96848L137.472 6.96851C137.484 6.96965 137.494 6.97778 137.498 6.98979Z" fill="#FFCB05" stroke="#FFCB05"/>
</g>
<g clip-path="url(#clip3_771_652)">
<path d="M150.498 6.98979L150.498 6.99034C150.502 7.0028 150.499 7.01585 150.489 7.02466L150.488 7.02501L148.307 8.93798L148.083 9.13427L148.149 9.42461L148.792 12.2582C148.792 12.2582 148.792 12.2583 148.792 12.2583C148.795 12.2715 148.79 12.284 148.78 12.2916L148.78 12.2917C148.769 12.2994 148.756 12.2994 148.747 12.2935L148.745 12.2928L146.257 10.8048L146 10.6515L145.744 10.8048L143.254 12.2928L143.254 12.2929C143.25 12.2951 143.247 12.2963 143.245 12.2969C143.242 12.2975 143.24 12.2978 143.238 12.2978C143.235 12.2978 143.232 12.2974 143.23 12.2965C143.227 12.2956 143.223 12.2941 143.22 12.2912C143.21 12.2842 143.205 12.2721 143.208 12.2581C143.208 12.258 143.208 12.258 143.208 12.258L143.851 9.42461L143.917 9.1343L143.693 8.93801L141.511 7.02466L141.51 7.02383C141.502 7.01621 141.498 7.00352 141.502 6.9906C141.506 6.97786 141.516 6.96967 141.529 6.96842C141.529 6.96841 141.529 6.96841 141.529 6.9684L144.415 6.7064L144.713 6.67941L144.83 6.40492L145.971 3.73463C145.971 3.73457 145.971 3.73452 145.971 3.73447C145.977 3.72126 145.988 3.7146 146 3.7146C146.012 3.7146 146.024 3.72146 146.029 3.73437C146.029 3.73443 146.029 3.7345 146.03 3.73456L147.17 6.40489L147.288 6.67941L147.585 6.7064L150.471 6.96848L150.472 6.96851C150.484 6.96965 150.494 6.97778 150.498 6.98979Z" fill="#FFCB05" stroke="#FFCB05"/>
</g>
<g clip-path="url(#clip4_771_652)">
<path d="M163.498 6.98979L163.498 6.99034C163.502 7.0028 163.499 7.01585 163.489 7.02466L163.488 7.02501L161.307 8.93798L161.083 9.13427L161.149 9.42461L161.792 12.2582C161.792 12.2582 161.792 12.2583 161.792 12.2583C161.795 12.2715 161.79 12.284 161.78 12.2916L161.78 12.2917C161.769 12.2994 161.756 12.2994 161.747 12.2935L161.745 12.2928L159.257 10.8048L159 10.6515L158.744 10.8048L156.254 12.2928L156.254 12.2929C156.25 12.2951 156.247 12.2963 156.245 12.2969C156.242 12.2975 156.24 12.2978 156.238 12.2978C156.235 12.2978 156.232 12.2974 156.23 12.2965C156.227 12.2956 156.223 12.2941 156.22 12.2912C156.21 12.2842 156.205 12.2721 156.208 12.2581C156.208 12.258 156.208 12.258 156.208 12.258L156.851 9.42461L156.917 9.1343L156.693 8.93801L154.511 7.02466L154.51 7.02383C154.502 7.01621 154.498 7.00352 154.502 6.9906C154.506 6.97786 154.516 6.96967 154.529 6.96842C154.529 6.96841 154.529 6.96841 154.529 6.9684L157.415 6.7064L157.713 6.67941L157.83 6.40492L158.971 3.73463C158.971 3.73457 158.971 3.73452 158.971 3.73447C158.977 3.72126 158.988 3.7146 159 3.7146C159.012 3.7146 159.024 3.72146 159.029 3.73437C159.029 3.73443 159.029 3.7345 159.03 3.73456L160.17 6.40489L160.288 6.67941L160.585 6.7064L163.471 6.96848L163.472 6.96851C163.484 6.96965 163.494 6.97778 163.498 6.98979Z" fill="#FFCB05" stroke="#FFCB05"/>
</g>
<defs>
<clipPath id="clip0_771_652">
<rect width="10" height="10" fill="white" transform="translate(102 3)"/>
</clipPath>
<clipPath id="clip1_771_652">
<rect width="10" height="10" fill="white" transform="translate(115 3)"/>
</clipPath>
<clipPath id="clip2_771_652">
<rect width="10" height="10" fill="white" transform="translate(128 3)"/>
</clipPath>
<clipPath id="clip3_771_652">
<rect width="10" height="10" fill="white" transform="translate(141 3)"/>
</clipPath>
<clipPath id="clip4_771_652">
<rect width="10" height="10" fill="white" transform="translate(154 3)"/>
</clipPath>
</defs>
</svg>
